<svg width="86" height="45" viewBox="0 0 86 45" fill="none" xmlns="http://www.w3.org/2000/svg">
<path d="M15.9874 2.78815C18.2801 3.39543 20.2755 4.548 21.9733 6.24589C23.6712 7.94377 24.8238 9.93909 25.4311 12.2319C26.0383 14.5246 26.0383 16.8174 25.4311 19.1101C24.8238 21.3905 23.6712 23.3858 21.9733 25.0961C20.6968 26.3726 19.2406 27.3455 17.6047 28.0147C15.9812 28.6716 14.2957 29 12.5482 29C10.8008 29 9.10908 28.6716 7.47316 28.0147C5.84964 27.3455 4.39962 26.3726 3.12311 25.0961L4.57313 23.6461C6.01075 25.0837 7.69624 26.0628 9.6296 26.5833C11.563 27.0914 13.4963 27.0914 15.4297 26.5833C17.3754 26.0628 19.0671 25.0837 20.5047 23.6461C22.4381 21.7127 23.5225 19.4014 23.758 16.712H13.3104V14.6485H23.758C23.5225 11.9592 22.4381 9.64785 20.5047 7.71449C19.0671 6.27687 17.3816 5.30399 15.4483 4.79587C13.5149 4.27535 11.5753 4.27535 9.6296 4.79587C7.69624 5.30399 6.01075 6.27687 4.57313 7.71449L3.12311 6.24589C4.821 4.548 6.81632 3.39543 9.10908 2.78815C11.4018 2.18088 13.6946 2.18088 15.9874 2.78815ZM55.8257 2.34199L44.4486 15.671L55.8257 29H53.1115L43.0915 17.2697L33.0715 29H31.5658V2.34199H33.6292V25.1705L53.1115 2.34199H55.8257ZM63.8193 3.40162C65.4676 2.6952 67.1903 2.34199 68.9873 2.34199C70.7844 2.34199 72.507 2.6952 74.1554 3.40162C75.8037 4.10804 77.2227 5.05613 78.4125 6.24589C79.6022 7.43564 80.5503 8.85468 81.2567 10.503C81.9631 12.1513 82.3164 13.874 82.3164 15.671C82.3164 17.468 81.9631 19.1907 81.2567 20.839C80.5503 22.4873 79.6022 23.9064 78.4125 25.0961C77.2227 26.2859 75.8037 27.234 74.1554 27.9404C72.507 28.6468 70.7844 29 68.9873 29C67.1903 29 65.4676 28.6468 63.8193 27.9404C62.171 27.234 60.752 26.2859 59.5622 25.0961C58.3725 23.9064 57.4244 22.4873 56.718 20.839C56.0116 19.1907 55.6583 17.468 55.6583 15.671C55.6583 13.874 56.0116 12.1513 56.718 10.503C57.4244 8.85468 58.3725 7.43564 59.5622 6.24589C60.752 5.05613 62.171 4.10804 63.8193 3.40162ZM64.6187 26.0442C66.0068 26.6391 67.463 26.9365 68.9873 26.9365C70.5117 26.9365 71.9679 26.6391 73.356 26.0442C74.744 25.4493 75.94 24.6499 76.9439 23.6461C77.9601 22.6298 78.7657 21.4277 79.3605 20.0396C79.9554 18.6516 80.2529 17.1954 80.2529 15.671C80.2529 14.1466 79.9554 12.6904 79.3605 11.3024C78.7657 9.91431 77.9601 8.71835 76.9439 7.71449C75.94 6.69824 74.744 5.89268 73.356 5.2978C71.9679 4.70292 70.5117 4.40548 68.9873 4.40548C67.463 4.40548 66.0068 4.70292 64.6187 5.2978C63.2307 5.89268 62.0285 6.69824 61.0123 7.71449C60.0084 8.71835 59.209 9.91431 58.6142 11.3024C58.0193 12.6904 57.7218 14.1466 57.7218 15.671C57.7218 17.1954 58.0193 18.6516 58.6142 20.0396C59.209 21.4277 60.0084 22.6298 61.0123 23.6461C62.0285 24.6499 63.2307 25.4493 64.6187 26.0442Z" fill="#C8DB31"/>
<path d="M14.5508 32.0967H15.2979V44H14.3765V34.5122L9.62842 44H9.05566L4.31592 34.5122V44H3.39453V32.0967H4.1416L9.34619 42.5059L14.5508 32.0967ZM21.4819 32.5698C22.2179 32.2544 22.9871 32.0967 23.7896 32.0967C24.592 32.0967 25.3612 32.2544 26.0972 32.5698C26.8332 32.8853 27.4668 33.3086 27.998 33.8398C28.5293 34.3711 28.9526 35.0047 29.2681 35.7407C29.5835 36.4767 29.7412 37.2459 29.7412 38.0483C29.7412 38.8507 29.5835 39.62 29.2681 40.356C28.9526 41.092 28.5293 41.7256 27.998 42.2568C27.4668 42.7881 26.8332 43.2114 26.0972 43.5269C25.3612 43.8423 24.592 44 23.7896 44C22.9871 44 22.2179 43.8423 21.4819 43.5269C20.7459 43.2114 20.1123 42.7881 19.5811 42.2568C19.0498 41.7256 18.6265 41.092 18.311 40.356C17.9956 39.62 17.8379 38.8507 17.8379 38.0483C17.8379 37.2459 17.9956 36.4767 18.311 35.7407C18.6265 35.0047 19.0498 34.3711 19.5811 33.8398C20.1123 33.3086 20.7459 32.8853 21.4819 32.5698ZM21.8389 42.6802C22.4587 42.9458 23.1089 43.0786 23.7896 43.0786C24.4702 43.0786 25.1204 42.9458 25.7402 42.6802C26.36 42.4146 26.894 42.0576 27.3423 41.6094C27.7961 41.1556 28.1558 40.6188 28.4214 39.999C28.687 39.3792 28.8198 38.729 28.8198 38.0483C28.8198 37.3677 28.687 36.7174 28.4214 36.0977C28.1558 35.4779 27.7961 34.9438 27.3423 34.4956C26.894 34.0418 26.36 33.6821 25.7402 33.4165C25.1204 33.1509 24.4702 33.0181 23.7896 33.0181C23.1089 33.0181 22.4587 33.1509 21.8389 33.4165C21.2191 33.6821 20.6823 34.0418 20.2285 34.4956C19.7803 34.9438 19.4233 35.4779 19.1577 36.0977C18.8921 36.7174 18.7593 37.3677 18.7593 38.0483C18.7593 38.729 18.8921 39.3792 19.1577 39.999C19.4233 40.6188 19.7803 41.1556 20.2285 41.6094C20.6823 42.0576 21.2191 42.4146 21.8389 42.6802ZM37.6519 43.0786C38.3215 43.0786 38.9606 42.9513 39.5693 42.6968C40.1836 42.4422 40.7287 42.077 41.2046 41.6011L41.8604 42.2568C41.3014 42.8158 40.6567 43.2474 39.9263 43.5518C39.2013 43.8506 38.4432 44 37.6519 44C36.8605 44 36.0996 43.8506 35.3691 43.5518C34.6442 43.2474 34.0023 42.8158 33.4434 42.2568C32.8844 41.6979 32.4528 41.056 32.1484 40.3311C31.8496 39.6006 31.7002 38.8397 31.7002 38.0483C31.7002 37.257 31.8496 36.4989 32.1484 35.7739C32.4528 35.0435 32.8844 34.3988 33.4434 33.8398C34.0023 33.2809 34.6442 32.8521 35.3691 32.5532C36.0996 32.2489 36.8605 32.0967 37.6519 32.0967C38.4432 32.0967 39.2013 32.2489 39.9263 32.5532C40.6567 32.8521 41.3014 33.2809 41.8604 33.8398L41.2046 34.4956C40.7287 34.0197 40.1836 33.6545 39.5693 33.3999C38.9606 33.1453 38.3215 33.0181 37.6519 33.0181C36.9823 33.0181 36.3403 33.1453 35.7261 33.3999C35.1118 33.6545 34.5667 34.0197 34.0908 34.4956C33.6149 34.9715 33.2497 35.5166 32.9951 36.1309C32.7461 36.7396 32.6216 37.3787 32.6216 38.0483C32.6216 38.7235 32.7489 39.3682 33.0034 39.9824C33.258 40.5967 33.6204 41.139 34.0908 41.6094C34.5612 42.0798 35.1035 42.4422 35.7178 42.6968C36.332 42.9513 36.9767 43.0786 37.6519 43.0786ZM55.0669 32.0967L49.9868 38.0483L55.0669 44H53.855L49.3809 38.7622L44.9067 44H44.2344V32.0967H45.1558V42.29L53.855 32.0967H55.0669ZM66.6216 38.0483C67.0975 38.3361 67.4738 38.7235 67.7505 39.2104C68.0327 39.6974 68.1738 40.2259 68.1738 40.7959C68.1738 41.6813 67.8612 42.4367 67.2358 43.062C66.6105 43.6873 65.8551 44 64.9697 44H57.8809V32.0967H64.9697C65.8551 32.0967 66.6105 32.4121 67.2358 33.043C67.8612 33.6683 68.1738 34.4237 68.1738 35.3091C68.1738 35.8791 68.0327 36.4076 67.7505 36.8945C67.4738 37.376 67.0975 37.7606 66.6216 38.0483ZM58.8022 33.0181V37.5918H64.9697C65.6006 37.5918 66.1374 37.3704 66.5801 36.9277C67.0283 36.4795 67.2524 35.9399 67.2524 35.3091C67.2524 34.6782 67.0283 34.1387 66.5801 33.6904C66.1374 33.2422 65.6006 33.0181 64.9697 33.0181H58.8022ZM64.9697 43.0786C65.6006 43.0786 66.1374 42.8573 66.5801 42.4146C67.0283 41.9663 67.2524 41.4268 67.2524 40.7959C67.2524 40.165 67.0283 39.6283 66.5801 39.1855C66.1374 38.7373 65.6006 38.5132 64.9697 38.5132H58.8022V43.0786H64.9697ZM75.6694 32.0967L80.7495 44H79.7451L78.6826 41.5098H72.0503L70.9878 44H69.9834L75.0635 32.0967H75.6694ZM72.4404 40.5884H78.2925L75.3623 33.7319L72.4404 40.5884Z" fill="#C8DB31"/>
</svg>
