<svg width="39" height="39" viewBox="0 0 39 39" fill="none" xmlns="http://www.w3.org/2000/svg">
<path d="M33.9493 5.00323C33.5767 5.01957 33.214 5.12327 32.887 5.25424C32.5632 5.38434 30.6995 6.17981 27.9473 7.3565C25.1951 8.53319 21.6175 10.0655 18.0711 11.5849C10.9782 14.6238 4.00822 17.6138 4.00822 17.6138L4.05902 17.5943C4.05902 17.5943 3.63834 17.735 3.21184 18.0321C2.99859 18.1807 2.76916 18.3725 2.58131 18.6522C2.39346 18.9319 2.25613 19.3282 2.30788 19.7474C2.48967 21.2198 4.01569 21.6375 4.01569 21.6375L4.02166 21.6405L10.832 23.9713C11.0056 24.5506 12.8975 30.8653 13.3137 32.2026C13.5436 32.9419 13.7587 33.3684 13.9831 33.6594C14.0954 33.8049 14.2131 33.9176 14.3432 34C14.3949 34.0327 14.4493 34.0573 14.5031 34.0792H14.506C14.5127 34.0821 14.5189 34.0824 14.5255 34.0852L14.5075 34.0807C14.52 34.0857 14.5324 34.0942 14.5449 34.0986C14.5692 34.1071 14.5841 34.1068 14.6151 34.1136C15.3951 34.3859 16.0405 33.8805 16.0405 33.8805L16.0674 33.8596L20.251 29.9793L27.0404 35.273L27.1256 35.3119C28.314 35.8395 29.3887 35.5451 29.9839 35.0609C30.579 34.5766 30.8131 33.9522 30.8131 33.9522L30.8385 33.8865L35.8274 7.88393C35.9551 7.3022 35.9732 6.79935 35.8528 6.34497C35.7324 5.89058 35.4399 5.49559 35.0729 5.27665C34.7059 5.05772 34.3219 4.98688 33.9493 5.00323ZM33.9896 6.55863C34.141 6.55162 34.2531 6.56892 34.2885 6.59C34.3238 6.61109 34.3397 6.60832 34.3736 6.73643C34.4076 6.86454 34.426 7.13439 34.3333 7.55671L34.3303 7.56568L29.3698 33.4173C29.358 33.4433 29.2546 33.6825 29.0186 33.8745C28.7779 34.0704 28.5101 34.2233 27.7994 33.9253L20.375 28.1355L20.1659 27.9712L20.1614 27.9756L17.9411 26.3097L30.4186 11.6297C30.5145 11.5172 30.5758 11.3794 30.5949 11.2328C30.6141 11.0862 30.5904 10.9372 30.5267 10.8038C30.463 10.6705 30.3621 10.5584 30.236 10.4811C30.11 10.4039 29.9643 10.3649 29.8165 10.3687C29.6721 10.3724 29.5317 10.417 29.4116 10.4972L11.3564 22.534L4.53565 20.1986C4.53565 20.1986 3.85835 19.8217 3.82593 19.5591C3.82413 19.5446 3.81614 19.5578 3.85133 19.5054C3.88653 19.453 3.97499 19.3645 4.08591 19.2872C4.30774 19.1326 4.56105 19.0392 4.56105 19.0392L4.58645 19.0302L4.61185 19.0198C4.61185 19.0198 11.5822 16.0296 18.6747 12.9909C22.221 11.4716 25.798 9.94038 28.5495 8.76398C31.3003 7.58788 33.2879 6.74134 33.4562 6.67368C33.6478 6.59695 33.8383 6.56564 33.9896 6.55863ZM25.7151 14.8003L16.2527 25.9331L16.2482 25.9376C16.2334 25.9554 16.2195 25.9739 16.2064 25.9929C16.1914 26.0136 16.1774 26.0351 16.1645 26.0572C16.1114 26.1474 16.0773 26.2476 16.0644 26.3515C16.0644 26.3535 16.0644 26.3555 16.0644 26.3575L14.8318 31.9007C14.8113 31.8409 14.7969 31.8189 14.775 31.7483V31.7469C14.3835 30.4888 12.5985 24.5335 12.3515 23.7099L25.7151 14.8003ZM17.321 27.7575L19.0213 29.0335L16.5231 31.3494L17.321 27.7575Z" fill="#C8DB31"/>
</svg>
