<svg width="46" height="46" viewBox="0 0 46 46" fill="none" xmlns="http://www.w3.org/2000/svg">
<path d="M6.96875 8.29785C4.95825 8.29785 3.31689 9.93701 3.3125 11.9453C3.3125 11.9475 3.3125 11.9475 3.3125 11.9497C3.3125 11.9519 3.3125 11.9519 3.3125 11.9541V35.0166C3.3125 37.0293 4.95605 38.6729 6.96875 38.6729H39.0312C41.0439 38.6729 42.6875 37.0293 42.6875 35.0166V11.9541C42.6875 11.9519 42.6875 11.9519 42.6875 11.9497C42.6875 11.9475 42.6875 11.9475 42.6875 11.9453C42.6831 9.93701 41.0417 8.29785 39.0312 8.29785H6.96875ZM6.96875 9.42285H39.0312C39.563 9.42285 40.0552 9.58545 40.4617 9.8623L40.3782 10.0139L40.5891 10.4709L41.0813 10.5764L41.1406 10.55C41.4065 10.9521 41.5625 11.4312 41.5625 11.9519C41.5625 11.9519 41.5625 11.9519 41.5625 11.9541C41.5603 12.8726 41.1121 13.7295 40.3584 14.2546L23 26.3506L5.6416 14.2546C4.88794 13.7295 4.4397 12.8726 4.4375 11.9541C4.4375 11.9519 4.4375 11.9519 4.4375 11.9519C4.4375 11.4114 4.60889 10.9148 4.89453 10.5039L5.21533 10.55L5.57129 10.1963L5.52515 9.87329C5.93384 9.59204 6.43042 9.42285 6.96875 9.42285ZM6.70508 10.7698L6.34912 11.1279L6.42163 11.6267L6.56226 11.7651L6.6084 11.7981L7.10718 11.8684L7.46313 11.5146L7.39062 11.0137L7.25 10.873L7.20605 10.8423L6.70508 10.7698ZM38.9521 10.7764L38.7742 10.8577L38.7258 10.8906L38.4863 11.3323L38.6973 11.7915L39.1895 11.8948L39.3696 11.8135L39.4158 11.7805L39.6553 11.3389L39.4443 10.8818L38.9521 10.7764ZM8.59692 12.0881L8.24097 12.4463L8.31348 12.9451L8.4541 13.0857L8.49805 13.1165L8.99902 13.189L9.35498 12.833L9.28247 12.332L9.14185 12.1936L9.0957 12.1606L8.59692 12.0881ZM37.0625 12.0947L36.8801 12.176L36.834 12.209L36.5945 12.6506L36.8054 13.1099L37.2976 13.2153L37.4778 13.1318L37.5239 13.0989L37.7656 12.6572L37.5547 12.2002L37.0625 12.0947ZM10.491 13.4065L10.1328 13.7646L10.2053 14.2634L10.3459 14.4041L10.3921 14.4348L10.8909 14.5073L11.2468 14.1514L11.1765 13.6526L11.0359 13.512L10.9875 13.4812L10.491 13.4065ZM35.1685 13.4131L34.9883 13.4944L34.9421 13.5273L34.7004 13.969L34.9114 14.4282L35.4058 14.5337L35.5859 14.4502L35.6321 14.4172L35.8738 13.9756L35.6628 13.5186L35.1685 13.4131ZM4.4375 14.6897C4.60889 14.8677 4.79346 15.0325 5 15.1775L7.23682 16.7354C6.9314 16.7441 6.6875 16.9924 6.6875 17.2979C6.6875 17.6077 6.94019 17.8604 7.25 17.8604C7.55981 17.8604 7.8125 17.6077 7.8125 17.2979C7.8125 17.2363 7.80151 17.1748 7.78174 17.1155L23 27.7217L38.2183 17.1155C38.1985 17.1748 38.1875 17.2363 38.1875 17.2979C38.1875 17.6077 38.4402 17.8604 38.75 17.8604C39.0598 17.8604 39.3125 17.6077 39.3125 17.2979C39.3125 16.9924 39.0686 16.7419 38.7632 16.7354L41 15.1775C41.2065 15.0325 41.3911 14.8677 41.5625 14.6897V35.0166C41.5625 36.3262 40.5803 37.3787 39.3125 37.5193C39.2971 37.2205 39.0488 36.9854 38.75 36.9854C38.4402 36.9854 38.1875 37.238 38.1875 37.5479H7.8125C7.8125 37.238 7.55981 36.9854 7.25 36.9854C6.95117 36.9854 6.70288 37.2205 6.6875 37.5193C5.41968 37.3787 4.4375 36.3262 4.4375 35.0166V14.6897ZM12.3828 14.7249L12.0247 15.083L12.0972 15.5818L12.2378 15.7224L12.2839 15.7532L12.7827 15.8257L13.1387 15.4697L13.0684 14.9709L12.9277 14.8303L12.8816 14.7996L12.3828 14.7249ZM33.2766 14.7314L33.0964 14.8127L33.0503 14.8457L32.8086 15.2896L33.0195 15.7466L33.5139 15.8521L33.6941 15.7686L33.7402 15.7356L33.9797 15.2939L33.7688 14.8369L33.2766 14.7314ZM14.2747 16.0432L13.9187 16.4014L13.9912 16.9001L14.1296 17.0408L14.1758 17.0715L14.6746 17.1462L15.0305 16.7881L14.958 16.2893L14.8196 16.1487L14.7734 16.1179L14.2747 16.0432ZM31.3848 16.0498L31.2046 16.1311L31.1584 16.1641L30.9189 16.6079L31.1299 17.0671L31.6221 17.1704L31.8 17.0869L31.8484 17.0562L32.0879 16.6123L31.877 16.1553L31.3848 16.0498ZM16.1665 17.3638L15.8105 17.7197L15.8809 18.2185L16.0215 18.3591L16.0676 18.3899L16.5664 18.4646L16.9246 18.1064L16.8499 17.6077L16.7114 17.467L16.6653 17.4363L16.1665 17.3638ZM29.4929 17.3682L29.3127 17.4517L29.2666 17.4824L29.0271 17.9263L29.238 18.3855L29.7302 18.491L29.9082 18.4053L29.9543 18.3745L30.196 17.9307L29.9851 17.4736L29.4929 17.3682ZM18.0583 18.6821L17.7002 19.0381L17.7727 19.5369L17.9133 19.6775L17.9617 19.7083L18.4583 19.783L18.8164 19.4248L18.7439 18.926L18.6033 18.7854L18.5571 18.7546L18.0583 18.6821ZM27.6011 18.6865L27.4209 18.77L27.3748 18.8008L27.1331 19.2446L27.344 19.7039L27.8362 19.8093L28.0186 19.7236L28.0625 19.6929L28.3042 19.249L28.0933 18.792L27.6011 18.6865ZM7.25 18.9854C6.94019 18.9854 6.6875 19.238 6.6875 19.5479C6.6875 19.8577 6.94019 20.1104 7.25 20.1104C7.55981 20.1104 7.8125 19.8577 7.8125 19.5479C7.8125 19.238 7.55981 18.9854 7.25 18.9854ZM38.75 18.9854C38.4402 18.9854 38.1875 19.238 38.1875 19.5479C38.1875 19.8577 38.4402 20.1104 38.75 20.1104C39.0598 20.1104 39.3125 19.8577 39.3125 19.5479C39.3125 19.238 39.0598 18.9854 38.75 18.9854ZM19.9502 20.0005L19.5942 20.3564L19.6667 20.8574L19.8074 20.9958L19.8535 21.0266L20.3523 21.1013L20.7061 20.7432L20.6357 20.2444L20.4951 20.1038L20.449 20.073L19.9502 20.0005ZM25.707 20.0049L25.5291 20.0884L25.4807 20.1213L25.2412 20.5652L25.4521 21.0222L25.9443 21.1277L26.1267 21.0442L26.1729 21.0112L26.4124 20.5674L26.2014 20.1104L25.707 20.0049ZM7.25 21.2354C6.94019 21.2354 6.6875 21.488 6.6875 21.7979C6.6875 22.1077 6.94019 22.3604 7.25 22.3604C7.55981 22.3604 7.8125 22.1077 7.8125 21.7979C7.8125 21.488 7.55981 21.2354 7.25 21.2354ZM38.75 21.2354C38.4402 21.2354 38.1875 21.488 38.1875 21.7979C38.1875 22.1077 38.4402 22.3604 38.75 22.3604C39.0598 22.3604 39.3125 22.1077 39.3125 21.7979C39.3125 21.488 39.0598 21.2354 38.75 21.2354ZM21.842 21.3188L21.4861 21.6748L21.5586 22.1758L21.6992 22.3142L21.7432 22.3472L22.2441 22.4197L22.6001 22.0615L22.5276 21.5627L22.387 21.4243L22.3408 21.3914L21.842 21.3188ZM23.8174 21.3232L23.635 21.4089L23.5889 21.4397L23.3494 21.8835L23.5603 22.3406L24.0547 22.446L24.2327 22.3625L24.281 22.3318L24.5205 21.8879L24.3096 21.4287L23.8174 21.3232ZM7.25 23.4854C6.94019 23.4854 6.6875 23.738 6.6875 24.0479C6.6875 24.3577 6.94019 24.6104 7.25 24.6104C7.55981 24.6104 7.8125 24.3577 7.8125 24.0479C7.8125 23.738 7.55981 23.4854 7.25 23.4854ZM38.75 23.4854C38.4402 23.4854 38.1875 23.738 38.1875 24.0479C38.1875 24.3577 38.4402 24.6104 38.75 24.6104C39.0598 24.6104 39.3125 24.3577 39.3125 24.0479C39.3125 23.738 39.0598 23.4854 38.75 23.4854ZM7.25 25.7354C6.94019 25.7354 6.6875 25.988 6.6875 26.2979C6.6875 26.6077 6.94019 26.8604 7.25 26.8604C7.55981 26.8604 7.8125 26.6077 7.8125 26.2979C7.8125 25.988 7.55981 25.7354 7.25 25.7354ZM38.75 25.7354C38.4402 25.7354 38.1875 25.988 38.1875 26.2979C38.1875 26.6077 38.4402 26.8604 38.75 26.8604C39.0598 26.8604 39.3125 26.6077 39.3125 26.2979C39.3125 25.988 39.0598 25.7354 38.75 25.7354ZM7.25 27.9854C6.94019 27.9854 6.6875 28.238 6.6875 28.5479C6.6875 28.8577 6.94019 29.1104 7.25 29.1104C7.55981 29.1104 7.8125 28.8577 7.8125 28.5479C7.8125 28.238 7.55981 27.9854 7.25 27.9854ZM38.75 27.9854C38.4402 27.9854 38.1875 28.238 38.1875 28.5479C38.1875 28.8577 38.4402 29.1104 38.75 29.1104C39.0598 29.1104 39.3125 28.8577 39.3125 28.5479C39.3125 28.238 39.0598 27.9854 38.75 27.9854ZM7.25 30.2354C6.94019 30.2354 6.6875 30.488 6.6875 30.7979C6.6875 31.1077 6.94019 31.3604 7.25 31.3604C7.55981 31.3604 7.8125 31.1077 7.8125 30.7979C7.8125 30.488 7.55981 30.2354 7.25 30.2354ZM38.75 30.2354C38.4402 30.2354 38.1875 30.488 38.1875 30.7979C38.1875 31.1077 38.4402 31.3604 38.75 31.3604C39.0598 31.3604 39.3125 31.1077 39.3125 30.7979C39.3125 30.488 39.0598 30.2354 38.75 30.2354ZM7.25 32.4854C6.94019 32.4854 6.6875 32.738 6.6875 33.0479C6.6875 33.3577 6.94019 33.6104 7.25 33.6104C7.55981 33.6104 7.8125 33.3577 7.8125 33.0479C7.8125 32.738 7.55981 32.4854 7.25 32.4854ZM38.75 32.4854C38.4402 32.4854 38.1875 32.738 38.1875 33.0479C38.1875 33.3577 38.4402 33.6104 38.75 33.6104C39.0598 33.6104 39.3125 33.3577 39.3125 33.0479C39.3125 32.738 39.0598 32.4854 38.75 32.4854ZM7.25 34.7354C6.94019 34.7354 6.6875 34.988 6.6875 35.2979C6.6875 35.6077 6.94019 35.8604 7.25 35.8604C7.55981 35.8604 7.8125 35.6077 7.8125 35.2979C7.8125 34.988 7.55981 34.7354 7.25 34.7354ZM38.75 34.7354C38.4402 34.7354 38.1875 34.988 38.1875 35.2979C38.1875 35.6077 38.4402 35.8604 38.75 35.8604C39.0598 35.8604 39.3125 35.6077 39.3125 35.2979C39.3125 34.988 39.0598 34.7354 38.75 34.7354Z" fill="#C8DB31"/>
</svg>
