<svg width="31" height="31" viewBox="0 0 31 31" fill="none" xmlns="http://www.w3.org/2000/svg">
<path d="M3.66071 0.172852C1.64768 0.172852 0 1.82053 0 3.83357V27.2621C0 29.2752 1.64768 30.9229 3.66071 30.9229H27.0893C29.1023 30.9229 30.75 29.2752 30.75 27.2621V3.83357C30.75 1.82053 29.1023 0.172852 27.0893 0.172852H3.66071ZM3.66071 1.63714H27.0893C28.3109 1.63714 29.2857 2.612 29.2857 3.83357V27.2621C29.2857 28.4837 28.3109 29.4586 27.0893 29.4586H3.66071C2.43915 29.4586 1.46429 28.4837 1.46429 27.2621V3.83357C1.46429 2.612 2.43915 1.63714 3.66071 1.63714ZM14.201 8.95285C13.4268 8.95107 12.7364 8.99434 12.119 9.29747L12.1175 9.2989C11.8165 9.4472 11.6044 9.63557 11.4354 9.85944C11.351 9.97138 11.2644 10.0719 11.2181 10.327C11.1949 10.4546 11.1819 10.6614 11.3153 10.8847C11.4488 11.1081 11.7171 11.2351 11.8887 11.258C12.008 11.2738 12.2772 11.3884 12.302 11.4224L12.3034 11.4253C12.3034 11.4253 12.4078 11.6976 12.4378 11.94C12.4679 12.1825 12.4664 12.379 12.4664 12.379C12.4661 12.3986 12.4666 12.4182 12.4679 12.4377C12.4679 12.4377 12.5103 13.0729 12.4822 13.7289C12.471 13.9904 12.4372 14.2231 12.4021 14.431C12.1414 14.1432 11.7572 13.6219 11.2024 12.6607C10.5869 11.5939 10.097 10.6373 10.097 10.6373C10.0713 10.554 9.98029 10.2947 9.6251 10.0339C9.23683 9.74773 8.8615 9.70501 8.8615 9.70501C8.81442 9.69556 8.76653 9.69077 8.71851 9.69071L5.83283 9.69214C5.83283 9.69214 5.65982 9.68213 5.45246 9.71073C5.24511 9.73933 4.93288 9.7626 4.63166 10.1197L4.63023 10.1211C4.36103 10.4428 4.37732 10.7983 4.41002 10.9991C4.44272 11.1999 4.51583 11.3523 4.51583 11.3523C4.51725 11.3552 4.51868 11.3581 4.52012 11.3609C4.52012 11.3609 6.88047 16.3236 9.54789 19.2457C11.4849 21.3675 13.4731 21.4036 15.1133 21.4036H16.3374C16.6499 21.4036 16.9325 21.3914 17.2454 21.2091C17.5583 21.0268 17.7688 20.5831 17.7688 20.2753C17.7688 19.9528 17.8169 19.6993 17.876 19.5689C17.9176 19.4773 17.9505 19.4442 18.0018 19.4173C18.0127 19.4242 18.0057 19.4202 18.0362 19.4417C18.158 19.5274 18.3593 19.7227 18.5781 19.9664C19.0158 20.4539 19.5125 21.1224 20.1797 21.5809C20.6576 21.9096 21.1091 22.0556 21.4524 22.1085C21.6674 22.1417 21.8344 22.1353 21.9528 22.1257L24.6869 22.1371C24.7032 22.1372 24.7194 22.1367 24.7356 22.1357C24.7356 22.1357 25.2067 22.1412 25.6965 21.8483C25.9414 21.7018 26.2303 21.4241 26.3243 21.0189C26.4182 20.6137 26.3001 20.1938 26.0697 19.8106V19.8092C26.1097 19.8755 26.0335 19.7392 25.9553 19.6118C25.8771 19.4845 25.7636 19.3128 25.6007 19.0999C25.2748 18.674 24.7528 18.0781 23.909 17.2924H23.9076C23.4791 16.8937 23.1897 16.6114 23.0711 16.4545C22.9525 16.2975 22.9914 16.3799 22.9996 16.3401C23.016 16.2603 23.5303 15.5183 24.5768 14.1207C25.213 13.2701 25.6594 12.6314 25.9539 12.1002C26.2483 11.569 26.4607 11.1089 26.3128 10.5458L26.3114 10.543C26.2458 10.2958 26.0665 10.0679 25.8824 9.94381C25.6983 9.81968 25.5238 9.77114 25.3676 9.74076C25.0553 9.68 24.7827 9.69071 24.5296 9.69071C23.999 9.69071 21.6447 9.7093 21.4509 9.7093C21.222 9.7093 20.8434 9.81344 20.6759 9.91378C20.2548 10.1672 20.1339 10.5001 20.1339 10.5001C20.1263 10.5141 20.1192 10.5284 20.1125 10.543C20.1125 10.543 19.6268 11.6199 19.0014 12.6836C18.3678 13.7626 17.8998 14.2772 17.6172 14.5154C17.6094 14.4731 17.6107 14.5075 17.6057 14.4482C17.5804 14.1469 17.6086 13.7305 17.6086 13.3243C17.6086 12.2301 17.7014 11.4642 17.6515 10.7875C17.6266 10.4491 17.5639 10.1002 17.3412 9.77937C17.1185 9.45855 16.7479 9.25013 16.3817 9.16162C16.1619 9.10861 15.9114 8.97074 15.0046 8.96143H15.0032C14.7259 8.95865 14.4591 8.95344 14.201 8.95285ZM14.9889 10.4257C15.7913 10.434 15.5914 10.4781 16.0371 10.5859C16.1753 10.6193 16.1418 10.6191 16.1386 10.6145C16.1354 10.6099 16.176 10.6853 16.1915 10.8962C16.2226 11.3178 16.1443 12.1561 16.1443 13.3243C16.1443 13.6428 16.1059 14.0973 16.1458 14.5712C16.1856 15.045 16.3031 15.6531 16.8693 16.0197C17.1377 16.1937 17.4493 16.2047 17.7159 16.1384C17.9824 16.0722 18.2241 15.9342 18.478 15.7309C18.9858 15.3243 19.5522 14.6381 20.2641 13.4258C20.9294 12.2941 21.4134 11.2165 21.4295 11.1807C21.4326 11.1782 21.4358 11.1765 21.4395 11.1736C21.4486 11.1737 21.4392 11.1736 21.4509 11.1736C21.7243 11.1736 24.0353 11.155 24.5296 11.155C24.6451 11.155 24.6871 11.162 24.7785 11.165C24.7536 11.2479 24.7812 11.195 24.6726 11.3909C24.4449 11.8018 24.0252 12.4124 23.4043 13.2427C22.3839 14.6054 21.7515 15.1393 21.5653 16.0441C21.4722 16.4964 21.6467 16.9979 21.9028 17.3367C22.1589 17.6756 22.4821 17.9659 22.9109 18.3649C23.705 19.1043 24.1708 19.6415 24.4381 19.9908C24.5718 20.1654 24.656 20.2915 24.7084 20.3768C24.7607 20.4621 24.7478 20.4531 24.8156 20.5656C24.8603 20.6404 24.8438 20.5948 24.8514 20.6171C24.7636 20.6418 24.6573 20.6716 24.6512 20.6729L21.9586 20.6614C21.9101 20.6614 21.8617 20.6662 21.8141 20.6757C21.8141 20.6757 21.8209 20.6836 21.6769 20.6614C21.5328 20.6392 21.3038 20.5769 21.0091 20.374C20.6534 20.1296 20.1555 19.5316 19.6678 18.9884C19.4239 18.7167 19.1806 18.4559 18.8784 18.2433C18.5762 18.0308 18.124 17.831 17.6358 17.9845C17.129 18.1437 16.7345 18.5392 16.5419 18.964C16.3985 19.2803 16.3869 19.6107 16.3645 19.9393C16.3402 19.9411 16.3682 19.9393 16.3374 19.9393H15.1133C13.4501 19.9393 12.2692 20.0543 10.6289 18.2576C8.42263 15.8406 6.40121 11.8191 6.07164 11.1564L8.61126 11.155C8.6559 11.1721 8.75143 11.208 8.75712 11.2122L8.75998 11.2151C8.66714 11.1472 8.76427 11.2422 8.76427 11.2422C8.77323 11.2641 8.78325 11.2856 8.79429 11.3066C8.79429 11.3066 9.29752 12.2897 9.93398 13.3929C10.5583 14.4744 11.0132 15.15 11.4526 15.5965C11.6723 15.8197 11.8941 15.9987 12.1905 16.0998C12.4869 16.2009 12.8696 16.1638 13.1271 16.0226C13.6531 15.7347 13.7238 15.31 13.8092 14.9387C13.8947 14.5669 13.9288 14.1708 13.945 13.7919C13.9765 13.0563 13.932 12.4198 13.9293 12.3805C13.9295 12.3667 13.9328 12.1012 13.8907 11.7613C13.8476 11.4132 13.7995 10.9876 13.4846 10.5587L13.4832 10.5573C13.481 10.5543 13.4782 10.5545 13.476 10.5515C13.8924 10.4918 14.2487 10.4183 14.9889 10.4257ZM21.4481 11.1436L21.4381 11.1664C21.4365 11.1673 21.437 11.1654 21.4352 11.1664C21.4383 11.1605 21.4481 11.1436 21.4481 11.1436Z" fill="#C8DB31"/>
</svg>
